<svg xmlns="http://www.w3.org/2000/svg" width="24" height="19.193" viewBox="0 0 24 19.193">
  <path id="eye" d="M25.9,13.117C23.473,7.491,18.915,4,14,4S4.52,7.491,2.1,13.117a1.2,1.2,0,0,0,0,.96C4.52,19.7,9.078,23.193,14,23.193s9.477-3.491,11.9-9.117A1.2,1.2,0,0,0,25.9,13.117ZM14,20.794c-3.8,0-7.4-2.747-9.477-7.2C6.6,9.146,10.194,6.4,14,6.4s7.4,2.747,9.477,7.2C21.4,18.047,17.8,20.794,14,20.794Zm0-12a4.8,4.8,0,1,0,4.8,4.8A4.8,4.8,0,0,0,14,8.8ZM14,16a2.4,2.4,0,1,1,2.4-2.4A2.4,2.4,0,0,1,14,16Z" transform="translate(-1.997 -4)" fill="#ff671f" opacity="0"/>
</svg>
